<svg width="602" height="801" viewBox="0 0 602 801" fill="none" xmlns="http://www.w3.org/2000/svg">
<path d="M0.5 301C0.5 422.25 74.5 522.5 158.5 564.5C158.5 564.5 169.5 571 173.5 562C177.5 553 169 549 169 549C81 501.5 20.5 410.497 20.5 301C20.5 146.36 146.308 21 301.5 21C456.692 21 582.5 146.36 582.5 301C582.5 441.417 478 555.5 354.5 576.5C354.5 576.5 343 578 344 588C345 598 357 595.5 357 595.5C384.884 590.781 412.055 581.53 437.536 568.408L412 642.001C412 642.001 358 664.501 302 664.501C246 664.501 184 640 184 640C184 640 177 638.001 174 644C171 649.999 174 654 174 654C174 654 195.5 718.5 199 722C202.5 725.5 232 738.638 288 742.5C344 746.362 379.5 730 379.5 730L366 768.5C366 768.5 338 781 300.5 781C263 781 229.5 766.5 229.5 766.5C229.5 766.5 222.5 765.5 219 772C215.5 778.5 221.5 784 221.5 784C221.5 784 252.5 799.5 300.5 800C348.5 800.5 377.5 785 380.5 782C383.5 779 405 717 405 717C405 717 405.5 712 402.5 708.5C399.5 705 394 705.5 394 705.5C394 705.5 346.5 726 296 723.5C245.5 721 215.5 710 213.5 708C211.5 706 198.5 665.501 198.5 665.501C198.5 665.501 250.5 687.001 315.5 683.001C380.5 679.001 423.5 658 427 656C429.664 653.336 456.759 571.97 462.795 553.776C543.309 501.705 601.5 409.349 601.5 301C601.5 134.762 467.738 0 301.5 0C135.262 0 0.5 134.762 0.5 301Z" fill="white"/>
<path d="M283.377 388H283.5V361H249.735L234.019 375.152C235.593 377.729 236.5 380.759 236.5 384C236.5 393.389 228.889 401 219.5 401C210.111 401 202.5 393.389 202.5 384C202.5 374.611 210.111 367 219.5 367C221.952 367 224.282 367.519 226.387 368.453L245.5 351H283.5V303H202.753C200.618 309.949 194.149 315 186.5 315C177.111 315 169.5 307.389 169.5 298C169.5 288.611 177.111 281 186.5 281C194.149 281 200.618 286.051 202.753 293H283.5V247H245.5L226.387 229.547C224.282 230.481 221.952 231 219.5 231C210.111 231 202.5 223.389 202.5 214C202.5 204.611 210.111 197 219.5 197C228.889 197 236.5 204.611 236.5 214C236.5 217.241 235.593 220.271 234.019 222.849L249.735 237H283.5V211H283.483C282.692 176.071 254.349 148 219.5 148C184.154 148 155.5 176.878 155.5 212.5C155.5 220.6 156.982 228.352 159.687 235.495C130.98 241.81 109.5 267.396 109.5 298C109.5 328.69 131.101 354.334 159.929 360.558C157.07 367.817 155.5 375.725 155.5 384C155.5 419.346 184.154 448 219.5 448C253.503 448 281.312 421.483 283.377 388Z" fill="#FFB703"/>
<path d="M227.5 214C227.5 218.418 223.918 222 219.5 222C215.082 222 211.5 218.418 211.5 214C211.5 209.582 215.082 206 219.5 206C223.918 206 227.5 209.582 227.5 214Z" fill="#FFB703"/>
<path d="M219.5 376C223.918 376 227.5 379.582 227.5 384C227.5 388.418 223.918 392 219.5 392C215.082 392 211.5 388.418 211.5 384C211.5 379.582 215.082 376 219.5 376Z" fill="#FFB703"/>
<path d="M194.5 298C194.5 302.418 190.918 306 186.5 306C182.082 306 178.5 302.418 178.5 298C178.5 293.582 182.082 290 186.5 290C190.918 290 194.5 293.582 194.5 298Z" fill="#FFB703"/>
<path d="M317.623 388H317.5V361H351.265L366.981 375.152C365.407 377.729 364.5 380.759 364.5 384C364.5 393.389 372.111 401 381.5 401C390.889 401 398.5 393.389 398.5 384C398.5 374.611 390.889 367 381.5 367C379.048 367 376.718 367.519 374.613 368.453L355.5 351H317.5V303H398.247C400.382 309.949 406.851 315 414.5 315C423.889 315 431.5 307.389 431.5 298C431.5 288.611 423.889 281 414.5 281C406.851 281 400.382 286.051 398.247 293H317.5V247H355.5L374.613 229.547C376.718 230.481 379.048 231 381.5 231C390.889 231 398.5 223.389 398.5 214C398.5 204.611 390.889 197 381.5 197C372.111 197 364.5 204.611 364.5 214C364.5 217.241 365.407 220.271 366.981 222.849L351.265 237H317.5V211H317.517C318.308 176.071 346.651 148 381.5 148C416.846 148 445.5 176.878 445.5 212.5C445.5 220.6 444.018 228.352 441.313 235.495C470.02 241.81 491.5 267.396 491.5 298C491.5 328.69 469.899 354.334 441.071 360.558C443.93 367.817 445.5 375.725 445.5 384C445.5 419.346 416.846 448 381.5 448C347.497 448 319.688 421.483 317.623 388Z" fill="#FFB703"/>
<path d="M373.5 214C373.5 218.418 377.082 222 381.5 222C385.918 222 389.5 218.418 389.5 214C389.5 209.582 385.918 206 381.5 206C377.082 206 373.5 209.582 373.5 214Z" fill="#FFB703"/>
<path d="M381.5 376C377.082 376 373.5 379.582 373.5 384C373.5 388.418 377.082 392 381.5 392C385.918 392 389.5 388.418 389.5 384C389.5 379.582 385.918 376 381.5 376Z" fill="#FFB703"/>
<path d="M406.5 298C406.5 302.418 410.082 306 414.5 306C418.918 306 422.5 302.418 422.5 298C422.5 293.582 418.918 290 414.5 290C410.082 290 406.5 293.582 406.5 298Z" fill="#FFB703"/>
</svg>
