<svg width="602" height="801" viewBox="0 0 602 801" fill="none" xmlns="http://www.w3.org/2000/svg">
<path d="M0.5 301.012C0.5 422.262 74.5 522.512 158.5 564.512C158.5 564.512 169.5 571.012 173.5 562.012C177.5 553.012 169 549.012 169 549.012C81 501.512 20.5 410.509 20.5 301.012C20.5 146.372 146.308 21.0118 301.5 21.0118C456.692 21.0118 582.5 146.372 582.5 301.012C582.5 441.429 478 555.512 354.5 576.512C354.5 576.512 343 578.012 344 588.012C345 598.012 357 595.512 357 595.512C384.884 590.793 412.055 581.542 437.536 568.42L412 642.013C412 642.013 358 664.513 302 664.513C246 664.513 184 640.012 184 640.012C184 640.012 177 638.013 174 644.012C171 650.011 174 654.012 174 654.012C174 654.012 195.5 718.512 199 722.012C202.5 725.512 232 738.65 288 742.512C344 746.374 379.5 730.012 379.5 730.012L366 768.512C366 768.512 338 781.012 300.5 781.012C263 781.012 229.5 766.512 229.5 766.512C229.5 766.512 222.5 765.512 219 772.012C215.5 778.512 221.5 784.012 221.5 784.012C221.5 784.012 252.5 799.512 300.5 800.012C348.5 800.512 377.5 785.012 380.5 782.012C383.5 779.012 405 717.012 405 717.012C405 717.012 405.5 712.012 402.5 708.512C399.5 705.012 394 705.512 394 705.512C394 705.512 346.5 726.012 296 723.512C245.5 721.012 215.5 710.012 213.5 708.012C211.5 706.012 198.5 665.513 198.5 665.513C198.5 665.513 250.5 687.013 315.5 683.013C380.5 679.013 423.5 658.012 427 656.012C429.664 653.348 456.759 571.982 462.795 553.788C543.309 501.717 601.5 409.361 601.5 301.012C601.5 134.774 467.738 0.0118408 301.5 0.0118408C135.262 0.0118408 0.5 134.774 0.5 301.012Z" fill="black"/>
<path d="M283.377 388.012H283.5V361.012H249.735L234.019 375.163C235.593 377.741 236.5 380.77 236.5 384.012C236.5 393.401 228.889 401.012 219.5 401.012C210.111 401.012 202.5 393.401 202.5 384.012C202.5 374.623 210.111 367.012 219.5 367.012C221.952 367.012 224.282 367.531 226.387 368.465L245.5 351.012H283.5V303.012H202.753C200.618 309.96 194.149 315.012 186.5 315.012C177.111 315.012 169.5 307.401 169.5 298.012C169.5 288.623 177.111 281.012 186.5 281.012C194.149 281.012 200.618 286.063 202.753 293.012H283.5V247.012H245.5L226.387 229.559C224.282 230.493 221.952 231.012 219.5 231.012C210.111 231.012 202.5 223.401 202.5 214.012C202.5 204.623 210.111 197.012 219.5 197.012C228.889 197.012 236.5 204.623 236.5 214.012C236.5 217.253 235.593 220.283 234.019 222.86L249.735 237.012H283.5V211.012H283.483C282.692 176.082 254.349 148.012 219.5 148.012C184.154 148.012 155.5 176.89 155.5 212.512C155.5 220.612 156.982 228.364 159.687 235.506C130.98 241.822 109.5 267.408 109.5 298.012C109.5 328.702 131.101 354.346 159.929 360.57C157.07 367.829 155.5 375.737 155.5 384.012C155.5 419.358 184.154 448.012 219.5 448.012C253.503 448.012 281.312 421.495 283.377 388.012Z" fill="#FFB703"/>
<path d="M227.5 214.012C227.5 218.43 223.918 222.012 219.5 222.012C215.082 222.012 211.5 218.43 211.5 214.012C211.5 209.594 215.082 206.012 219.5 206.012C223.918 206.012 227.5 209.594 227.5 214.012Z" fill="#FFB703"/>
<path d="M219.5 376.012C223.918 376.012 227.5 379.594 227.5 384.012C227.5 388.43 223.918 392.012 219.5 392.012C215.082 392.012 211.5 388.43 211.5 384.012C211.5 379.594 215.082 376.012 219.5 376.012Z" fill="#FFB703"/>
<path d="M194.5 298.012C194.5 302.43 190.918 306.012 186.5 306.012C182.082 306.012 178.5 302.43 178.5 298.012C178.5 293.594 182.082 290.012 186.5 290.012C190.918 290.012 194.5 293.594 194.5 298.012Z" fill="#FFB703"/>
<path d="M317.623 388.012H317.5V361.012H351.265L366.981 375.163C365.407 377.741 364.5 380.77 364.5 384.012C364.5 393.401 372.111 401.012 381.5 401.012C390.889 401.012 398.5 393.401 398.5 384.012C398.5 374.623 390.889 367.012 381.5 367.012C379.048 367.012 376.718 367.531 374.613 368.465L355.5 351.012H317.5V303.012H398.247C400.382 309.96 406.851 315.012 414.5 315.012C423.889 315.012 431.5 307.401 431.5 298.012C431.5 288.623 423.889 281.012 414.5 281.012C406.851 281.012 400.382 286.063 398.247 293.012H317.5V247.012H355.5L374.613 229.559C376.718 230.493 379.048 231.012 381.5 231.012C390.889 231.012 398.5 223.401 398.5 214.012C398.5 204.623 390.889 197.012 381.5 197.012C372.111 197.012 364.5 204.623 364.5 214.012C364.5 217.253 365.407 220.283 366.981 222.86L351.265 237.012H317.5V211.012H317.517C318.308 176.082 346.651 148.012 381.5 148.012C416.846 148.012 445.5 176.89 445.5 212.512C445.5 220.612 444.018 228.364 441.313 235.506C470.02 241.822 491.5 267.408 491.5 298.012C491.5 328.702 469.899 354.346 441.071 360.57C443.93 367.829 445.5 375.737 445.5 384.012C445.5 419.358 416.846 448.012 381.5 448.012C347.497 448.012 319.688 421.495 317.623 388.012Z" fill="#FFB703"/>
<path d="M373.5 214.012C373.5 218.43 377.082 222.012 381.5 222.012C385.918 222.012 389.5 218.43 389.5 214.012C389.5 209.594 385.918 206.012 381.5 206.012C377.082 206.012 373.5 209.594 373.5 214.012Z" fill="#FFB703"/>
<path d="M381.5 376.012C377.082 376.012 373.5 379.594 373.5 384.012C373.5 388.43 377.082 392.012 381.5 392.012C385.918 392.012 389.5 388.43 389.5 384.012C389.5 379.594 385.918 376.012 381.5 376.012Z" fill="#FFB703"/>
<path d="M406.5 298.012C406.5 302.43 410.082 306.012 414.5 306.012C418.918 306.012 422.5 302.43 422.5 298.012C422.5 293.594 418.918 290.012 414.5 290.012C410.082 290.012 406.5 293.594 406.5 298.012Z" fill="#FFB703"/>
</svg>
